<svg xmlns="http://www.w3.org/2000/svg" width="144" height="144" fill="none" viewBox="0 0 144 144"><rect width="144" height="144" fill="#E7E4F2" rx="72" transform="matrix(-1 0 0 1 144 0)"/><path fill="#AEA5D6" stroke="#171321" stroke-linecap="square" stroke-width="2" d="M44 62h56v32a8 8 0 01-8 8H44V62z"/><path stroke="#171321" stroke-linecap="square" stroke-width="2" d="M53 62V51c0-10.493 8.507-19 19-19v0c10.493 0 19 8.507 19 19v11"/><circle cx="72" cy="82" r="14" fill="#fff" stroke="#171321" stroke-linecap="square" stroke-width="2"/><path stroke="#171321" stroke-linecap="square" stroke-width="2" d="M63 92l1.657-1.657A8 8 0 0170.314 88h3.372a8 8 0 015.657 2.343L81 92"/><circle cx="72" cy="80" r="4" stroke="#171321" stroke-linecap="square" stroke-width="2"/></svg>