<svg width="144" height="144" fill="none" viewBox="0 0 144 144" xmlns="http://www.w3.org/2000/svg"><circle cx="72" cy="72" r="72" fill="#E7E4F2"/><path d="M33.194 55.935a42 42 0 0052.387 55.809" stroke="#171321" stroke-width="2" stroke-linecap="square"/><circle cx="72" cy="72" r="34.688" fill="#fff"/><path d="M103.245 87.066a34.689 34.689 0 10-6.185 8.918" stroke="#171321" stroke-width="2" stroke-linecap="square"/><circle cx="72" cy="72" r="23.125" fill="#AEA5D6"/><path fill-rule="evenodd" clip-rule="evenodd" d="M70.16 62h3.692l.25 2.51a7.732 7.732 0 011.707.707l1.961-1.597 2.61 2.618-1.597 1.953c.3.533.539 1.105.707 1.706l2.51.251v3.704l-2.51.25a7.732 7.732 0 01-.707 1.707l1.597 1.953-2.618 2.618-1.953-1.597a7.71 7.71 0 01-1.706.707L73.852 82h-3.704l-.25-2.51a7.732 7.732 0 01-1.707-.707l-1.953 1.597-2.618-2.618 1.597-1.953a7.73 7.73 0 01-.707-1.706L62 73.852v-3.704l2.51-.25a7.732 7.732 0 01.707-1.707l-1.597-1.953 2.618-2.618 1.953 1.597a7.735 7.735 0 011.706-.707L70.16 62zm6.655 10a4.815 4.815 0 11-9.63 0 4.815 4.815 0 019.63 0z" fill="#171321"/></svg>