<svg width="144" height="144" fill="none" viewBox="0 0 144 144" xmlns="http://www.w3.org/2000/svg"><circle cx="72" cy="72" r="72" fill="#E7E4F2"/><path d="M33.194 55.935a42 42 0 0052.387 55.809" stroke="#171321" stroke-width="2" stroke-linecap="square"/><circle cx="72" cy="72" r="34.688" fill="#fff"/><circle cx="72" cy="72" r="23.125" fill="#FF9D73"/><path d="M103.245 87.066a34.689 34.689 0 10-6.185 8.918" stroke="#171321" stroke-width="2" stroke-linecap="square"/><path fill-rule="evenodd" clip-rule="evenodd" d="M78.23 64.355l.708-.707 1.414 1.414-.707.708-6.23 6.23 6.23 6.23.707.707-1.414 1.415-.707-.707-6.23-6.23-6.231 6.23-.707.707-1.415-1.415.708-.707 6.23-6.23-6.23-6.23-.708-.707 1.415-1.415.707.707 6.23 6.23 6.23-6.23z" fill="#171321"/></svg>