<svg xmlns="http://www.w3.org/2000/svg" width="144" height="144" fill="none" viewBox="0 0 144 144"><path fill="#6FDAC9" d="M42.205 12.79a1 1 0 010 1.755L36.31 17.77a1 1 0 00-.398.397l-3.224 5.896a1 1 0 01-1.755 0l-3.225-5.896a1 1 0 00-.397-.397l-5.896-3.225a1 1 0 010-1.755l5.896-3.224a1 1 0 00.397-.398l3.225-5.896a1 1 0 011.755 0l3.224 5.896a1 1 0 00.398.398l5.896 3.224zM19.933 29.145a.5.5 0 010 .877l-3.595 1.966a.5.5 0 00-.198.199l-1.966 3.594a.5.5 0 01-.878 0l-1.966-3.594a.5.5 0 00-.198-.199l-3.595-1.966a.5.5 0 010-.877l3.595-1.966a.5.5 0 00.198-.199l1.966-3.594a.5.5 0 01.878 0l1.966 3.594a.5.5 0 00.198.199l3.595 1.966z"/><path fill="#D0C5E2" d="M19.933 113.561a.5.5 0 010 .878l-3.595 1.966a.491.491 0 00-.198.198l-1.966 3.595a.5.5 0 01-.878 0l-1.966-3.595a.492.492 0 00-.198-.198l-3.595-1.966a.5.5 0 010-.878l3.595-1.966a.492.492 0 00.198-.198l1.966-3.595a.5.5 0 01.878 0l1.966 3.595a.491.491 0 00.198.198l3.595 1.966z"/><g clip-path="url(#a)"><path fill="url(#b)" fill-opacity=".6" fill-rule="evenodd" d="M37.562 37.562c-19.043 19.269-19.066 50.23 0 69.296 19.065 19.066 50.026 19.042 69.295-.001L37.562 37.562z" clip-rule="evenodd"/></g><path fill="#171321" d="M72 107c-19.33 0-35-15.67-35-35s15.67-35 35-35 35 15.67 35 35-15.67 35-35 35z"/><path fill="#fff" d="M87.466 68.965l-4.374-11.237s-.213-.416-.426-.52c-.215-.104-.427-.208-.64-.208-.213 0-.428 0-.64.208-.214.104-.321.312-.426.624l-2.988 8.844H66.028l-2.988-8.844s-.212-.416-.425-.624c-.215-.104-.428-.208-.64-.208-.214 0-.534 0-.641.208-.213.104-.32.312-.426.52l-4.373 11.133c-1.28 3.434-.213 7.18 2.667 9.26l6.611 4.89 3.308 2.394 2.025 1.456s1.173.312 1.6 0l2.028-1.457 3.305-2.392 6.72-4.89c2.88-2.186 3.945-5.827 2.666-9.157z"/><path stroke="#7759C2" stroke-miterlimit="10" stroke-width="4" d="M72 107c-19.33 0-35-15.67-35-35s15.67-35 35-35 35 15.67 35 35-15.67 35-35 35z"/><path fill="#6FDAC9" fill-rule="evenodd" d="M137.967 74.099l-11.994-.375a54.833 54.833 0 000-3.448l11.994-.375a66.53 66.53 0 010 4.198zm-.631-11.496l-11.88 1.693a54.026 54.026 0 00-.59-3.372l11.748-2.446a65.84 65.84 0 01.722 4.125zm-2.615-11.205l-11.401 3.743a53.617 53.617 0 00-1.171-3.215l11.139-4.463a65.44 65.44 0 011.433 3.935zm-4.533-10.573L119.615 46.5a53.477 53.477 0 00-1.716-2.966L128.09 37.2a66.227 66.227 0 012.098 3.626zm-6.306-9.625l-9.428 7.424a54.767 54.767 0 00-2.206-2.627l8.94-8.004c.931 1.04 1.83 2.11 2.694 3.207zm-7.875-8.388l-8.004 8.94a54.419 54.419 0 00-2.627-2.206l7.424-9.428a66.779 66.779 0 013.207 2.694zm-9.206-6.902l-6.336 10.19a54.042 54.042 0 00-2.966-1.715l5.676-10.573a65.723 65.723 0 013.626 2.098zm-10.264-5.198L92.074 21.85a53.568 53.568 0 00-3.215-1.17l3.743-11.402c1.33.437 2.643.915 3.935 1.433zM85.521 7.386l-2.445 11.748a53.808 53.808 0 00-3.372-.59l1.693-11.88c1.39.198 2.765.44 4.124.722zM74.1 6.033l-.375 11.994a55.139 55.139 0 00-3.448 0L69.9 6.033a67.231 67.231 0 014.198 0zM31.54 124.146l7.362-9.475a54.22 54.22 0 002.502 1.832l-6.809 9.881a65.499 65.499 0 01-3.056-2.238zm8.692 5.719l5.785-10.514a53.32 53.32 0 002.755 1.414l-5.17 10.83a65.44 65.44 0 01-3.37-1.73zm9.485 4.279l4.051-11.296a53.38 53.38 0 002.94.959l-3.39 11.511a66.277 66.277 0 01-3.6-1.174zm10.043 2.723l2.212-11.794c1.01.189 2.03.35 3.06.483l-1.53 11.902a65.744 65.744 0 01-3.742-.591zm10.347 1.106l.338-11.995a53.616 53.616 0 003.28-.005l.375 11.994a66.53 66.53 0 01-3.993.006zm11.291-.637l-1.693-11.88a54.026 54.026 0 003.372-.59l2.446 11.748a65.84 65.84 0 01-4.125.722zm11.205-2.615L88.86 123.32a53.617 53.617 0 003.215-1.171l4.463 11.139a65.44 65.44 0 01-3.935 1.433zm10.573-4.533L97.5 119.615a53.596 53.596 0 002.966-1.716l6.336 10.191a66.048 66.048 0 01-3.626 2.098zm9.625-6.306l-7.424-9.428a54.814 54.814 0 002.627-2.206l8.004 8.94c-1.04.931-2.11 1.83-3.207 2.694zm8.388-7.875l-8.94-8.004a54.814 54.814 0 002.206-2.627l9.428 7.424a66.492 66.492 0 01-2.694 3.207zm6.902-9.206l-10.191-6.336a53.596 53.596 0 001.716-2.966l10.573 5.676a66.048 66.048 0 01-2.098 3.626zm5.198-10.264l-11.139-4.463a53.642 53.642 0 001.171-3.215l11.401 3.743a65.44 65.44 0 01-1.433 3.935zm3.326-11.016l-11.748-2.445c.231-1.112.428-2.236.59-3.372l11.88 1.693a65.84 65.84 0 01-.722 4.124z" clip-rule="evenodd"/><defs><linearGradient id="b" x1="183.37" x2="15.942" y1="174.104" y2="36.996" gradientUnits="userSpaceOnUse"><stop stop-color="#7759BF" stop-opacity="0"/><stop offset=".5" stop-color="#7759BF" stop-opacity="0"/><stop offset="1" stop-color="#7759BF"/></linearGradient><clipPath id="a"><path fill="#fff" d="M2.704 72L72 2.704 141.296 72 72 141.296z"/></clipPath></defs></svg>