<svg width="17" height="17" xmlns="http://www.w3.org/2000/svg"><path fill-rule="evenodd" clip-rule="evenodd" d="M2.55.371a.558.558 0 0 1 1.052 0l.407 1.149c.056.158.18.283.34.34l1.148.406a.558.558 0 0 1 0 1.052l-1.149.406a.558.558 0 0 0-.34.34l-.406 1.148a.558.558 0 0 1-1.051 0l-.407-1.148a.558.558 0 0 0-.34-.34L.656 3.318a.558.558 0 0 1 0-1.052l1.148-.407a.558.558 0 0 0 .34-.34L2.55.372Zm4.705.947a.5.5 0 0 1 .5-.5h5.429a2.827 2.827 0 0 1 2.826 2.826v6.204a2.827 2.827 0 0 1-2.826 2.827H3.829L.87 15.63a.5.5 0 0 1-.853-.354v-8.79a.5.5 0 0 1 1 0v7.584l2.252-2.25.146-.146h9.769a1.827 1.827 0 0 0 1.826-1.827V3.644a1.827 1.827 0 0 0-1.826-1.826H7.755a.5.5 0 0 1-.5-.5Zm.912 3.194a.465.465 0 0 0-.876 0l-.339.957a.465.465 0 0 1-.283.283l-.957.339a.465.465 0 0 0 0 .876l.957.34c.132.046.236.15.283.282l.34.957c.145.413.73.413.875 0l.34-.957a.465.465 0 0 1 .282-.283l.957-.339a.465.465 0 0 0 0-.876l-.957-.34a.465.465 0 0 1-.283-.282l-.339-.957Z" fill="#000"/></svg>