<svg width="16" height="16" xmlns="http://www.w3.org/2000/svg"><path fill-rule="evenodd" clip-rule="evenodd" d="M15.6 1.107A.5.5 0 1 0 14.893.4l-.85.85H7.75a.5.5 0 0 0 0 1h5.293L6.396 8.896a.5.5 0 1 0 .708.708L15.6 1.107ZM3.508.66a.54.54 0 0 0-1.016 0l-.394 1.11a.54.54 0 0 1-.328.33l-1.11.393a.54.54 0 0 0 0 1.016l1.11.394a.54.54 0 0 1 .328.328l.394 1.11a.54.54 0 0 0 1.016 0l.394-1.11a.54.54 0 0 1 .328-.328l1.11-.394a.54.54 0 0 0 0-1.016l-1.11-.394a.54.54 0 0 1-.328-.328L3.508.66ZM15.25 4.25a.5.5 0 0 1 .5.5V10A2.75 2.75 0 0 1 13 12.75H3.96l-2.857 2.854a.5.5 0 0 1-.853-.354v-8.5a.5.5 0 0 1 1 0v7.294l2.15-2.148.146-.146H13A1.75 1.75 0 0 0 14.75 10V4.75a.5.5 0 0 1 .5-.5Z" fill="#000"/></svg>