<svg width="14" height="14" viewBox="0 0 14 14" fill="none" xmlns="http://www.w3.org/2000/svg">
<path d="M2.35001 0.656259C2.35001 0.324888 2.08138 0.0562592 1.75001 0.0562592C1.41864 0.0562592 1.15001 0.324888 1.15001 0.656259V1.15001H0.656259C0.324888 1.15001 0.0562592 1.41864 0.0562592 1.75001C0.0562592 2.08138 0.324888 2.35001 0.656259 2.35001H1.15001V2.84376C1.15001 3.17513 1.41864 3.44376 1.75001 3.44376C2.08138 3.44376 2.35001 3.17513 2.35001 2.84376V2.35001H2.84376C3.17513 2.35001 3.44376 2.08138 3.44376 1.75001C3.44376 1.41864 3.17513 1.15001 2.84376 1.15001H2.35001V0.656259Z" fill="#B2B1B2"/>
<path d="M7.35895 10.7443L8.15565 9.84252L8.74785 10.292L10.0276 9.3208L12.2082 7.68176L12.2125 7.67834L12.2197 7.6729C12.4714 7.4823 12.6555 7.21399 12.7431 6.90782C12.8308 6.6016 12.8169 6.27499 12.7036 5.97754L12.701 5.97048L12.6883 5.93663L12.3619 5.08138L13.2588 4.06614L13.811 5.51279L13.8252 5.55071C14.0306 6.09045 14.0557 6.68262 13.8968 7.23796C13.7379 7.7933 13.4035 8.28172 12.9441 8.62959L12.9381 8.63433L10.7486 10.2801L9.01479 11.5961C8.93791 11.6544 8.84419 11.686 8.74785 11.686C8.6515 11.686 8.55778 11.6544 8.4809 11.5961L7.35895 10.7443Z" fill="#B2B1B2"/>
<path d="M6.797 4.77354H7.59511L6.53497 5.97354H5.92542L5.40699 4.37958L4.80813 5.94938L4.79388 5.98514C4.68305 6.28067 4.66997 6.60454 4.75683 6.90837C4.82719 7.15448 4.95986 7.37614 5.1399 7.55266L4.34481 8.45265C3.99364 8.12414 3.73643 7.70478 3.60305 7.23821C3.44425 6.68273 3.46959 6.09046 3.67524 5.55071L3.69007 5.51347L5.11849 1.76913C5.14741 1.69562 5.19888 1.63326 5.26544 1.59108C5.31514 1.5593 5.37155 1.53962 5.43016 1.53361C5.48878 1.5276 5.54798 1.53543 5.60305 1.55647C5.65812 1.57752 5.70753 1.61119 5.74734 1.65481C5.78716 1.69843 5.81627 1.75079 5.83236 1.80771L6.797 4.77354Z" fill="#B2B1B2"/>
<path d="M12.6482 0.866211L13.5475 1.66071L3.39801 13.1492L2.4987 12.3547L12.6482 0.866211Z" fill="#B2B1B2"/>
</svg>
