<svg width="14" height="14" viewBox="0 0 14 14" fill="none" xmlns="http://www.w3.org/2000/svg">
<path fill-rule="evenodd" clip-rule="evenodd" d="M2.34999 0.656244C2.34999 0.324873 2.08136 0.0562439 1.74999 0.0562439C1.41862 0.0562439 1.14999 0.324873 1.14999 0.656244V1.14999H0.656244C0.324873 1.14999 0.0562439 1.41862 0.0562439 1.74999C0.0562436 2.08136 0.324873 2.34999 0.656244 2.34999H1.14999V2.84374C1.14999 3.17511 1.41862 3.44374 1.74999 3.44374C2.08136 3.44374 2.34999 3.17511 2.34999 2.84374V2.34999H2.84374C3.17511 2.34999 3.44374 2.08136 3.44374 1.74999C3.44374 1.41862 3.17511 1.14999 2.84374 1.14999H2.34999V0.656244ZM12.7009 5.97045L12.7009 5.97044L12.6883 5.9366L12.0936 4.37879L11.8445 5.14468L11.5749 5.97351H10.7034H6.79696H5.92538L5.6558 5.14468L5.40694 4.37956L4.81121 5.94117L4.80809 5.94935L4.80484 5.9575L4.79384 5.98512C4.68301 6.28065 4.66993 6.60451 4.75679 6.90835C4.84421 7.21415 5.02785 7.48221 5.27902 7.67283L5.28012 7.67367L5.2829 7.67576L5.29132 7.68209L5.29962 7.68858L5.3033 7.69145L7.4687 9.32125L7.47248 9.3241L7.47247 9.3241L8.55104 10.1426L8.55137 10.1428L8.7478 10.292L8.94424 10.1428L8.94457 10.1426L10.0231 9.3241L10.0275 9.32078L10.0275 9.32079L12.2081 7.68174L12.2125 7.67832L12.2197 7.67288C12.4714 7.48228 12.6555 7.21396 12.7431 6.9078C12.8307 6.60157 12.8168 6.27497 12.7036 5.97751L12.7009 5.97045ZM12.938 8.6343L10.7485 10.28L9.66997 11.0985L9.01475 11.5961C8.93787 11.6544 8.84415 11.6859 8.7478 11.6859C8.65146 11.6859 8.55774 11.6544 8.48086 11.5961L7.82563 11.0985L6.74707 10.28L4.5731 8.64378L4.56096 8.6343L4.55557 8.63024C4.09613 8.28224 3.76181 7.79367 3.60301 7.23819C3.44421 6.68271 3.46954 6.09044 3.67519 5.55068L3.69003 5.51345L4.81587 2.56226L4.85568 2.45789L5.00051 2.07823L5.01566 2.03854L5.11844 1.7691C5.14737 1.69559 5.19884 1.63324 5.2654 1.59106C5.3151 1.55927 5.37151 1.53959 5.43012 1.53358C5.48874 1.52758 5.54794 1.53541 5.60301 1.55645C5.65808 1.57749 5.70749 1.61117 5.7473 1.65479C5.78711 1.69841 5.81623 1.75077 5.83232 1.80769L5.91911 2.07455L5.9227 2.08558L6.05339 2.4874L6.08809 2.59406L6.79696 4.77351H10.7034L11.4123 2.59392L11.4469 2.4874L11.5776 2.08558L11.5811 2.07477L11.668 1.80769C11.684 1.75068 11.713 1.69822 11.7528 1.65452C11.7926 1.61081 11.842 1.57708 11.8972 1.55602C11.9523 1.53496 12.0115 1.52716 12.0702 1.53324C12.1288 1.53933 12.1853 1.55913 12.2349 1.59106C12.3015 1.63324 12.353 1.69559 12.3819 1.7691L12.4838 2.0362L12.4999 2.07826L12.6446 2.45741L12.6846 2.56198L13.811 5.51277L13.8251 5.55068C14.0305 6.09042 14.0557 6.68259 13.8968 7.23794C13.7379 7.79328 13.4035 8.2817 12.9441 8.62956L12.938 8.6343ZM3.06249 9.68124C3.39386 9.68124 3.66249 9.94987 3.66249 10.2812V11.2125H4.59374C4.92511 11.2125 5.19374 11.4811 5.19374 11.8125C5.19374 12.1439 4.92511 12.4125 4.59374 12.4125H3.66249V13.3437C3.66249 13.6751 3.39386 13.9437 3.06249 13.9437C2.73112 13.9437 2.46249 13.6751 2.46249 13.3437V12.4125H1.53124C1.19987 12.4125 0.931244 12.1439 0.931244 11.8125C0.931244 11.4811 1.19987 11.2125 1.53124 11.2125H2.46249V10.2812C2.46249 9.94987 2.73112 9.68124 3.06249 9.68124Z" fill="#B2B1B2"/>
</svg>
