<svg xmlns="http://www.w3.org/2000/svg" width="24" height="24" fill="none"><path fill="#B2B1B2" d="m22.2 10.12-.03-.08-2.62-6.83-1.66 5.08-.34 1.03H6.45L6.1 8.3 4.45 3.21l-2.62 6.83v.02l-.03.08a4.56 4.56 0 0 0 1.52 5.26v.01h.01l.01.02.02.01 4.96 3.72 2.47 1.86 1.2.91 1.2-.9 2.47-1.87 5-3.74.01-.01h.01a4.57 4.57 0 0 0 1.52-5.28v-.01Zm-.63 6.5-5 3.74-2.47 1.86-1.5 1.13a1.01 1.01 0 0 1-1.21 0l-1.5-1.13-2.47-1.86-4.97-3.73-.02-.02H2.4A6.06 6.06 0 0 1 .4 9.58l.03-.08L3.7.98a.86.86 0 0 1 1.63.1l2.2 6.74h8.94l2.2-6.75A.86.86 0 0 1 20.3.98l3.27 8.53.03.08a6.07 6.07 0 0 1-2.02 7.01v.01Z"/></svg>
