<svg width="14" height="14" viewBox="0 0 14 14" fill="none" xmlns="http://www.w3.org/2000/svg">
<path d="M2.34999 0.656244C2.34999 0.324873 2.08136 0.0562439 1.74999 0.0562439C1.41862 0.0562439 1.14999 0.324873 1.14999 0.656244V1.14999H0.656244C0.324873 1.14999 0.0562439 1.41862 0.0562439 1.74999C0.0562439 2.08136 0.324873 2.34999 0.656244 2.34999H1.14999V2.84374C1.14999 3.17511 1.41862 3.44374 1.74999 3.44374C2.08136 3.44374 2.34999 3.17511 2.34999 2.84374V2.34999H2.84374C3.17511 2.34999 3.44374 2.08136 3.44374 1.74999C3.44374 1.41862 3.17511 1.14999 2.84374 1.14999H2.34999V0.656244Z" fill="#B2B1B2"/>
<path d="M12.7009 5.97046L12.7036 5.97753C12.8168 6.27498 12.8307 6.60159 12.7431 6.90781C12.6555 7.21398 12.4714 7.48229 12.2197 7.67289L12.2125 7.67833L12.2081 7.68175L10.0275 9.3208L10.0231 9.32411L8.99899 10.1013C8.98797 10.6558 8.88669 11.1881 8.70923 11.6843C8.72202 11.6854 8.73489 11.686 8.74781 11.686C8.84416 11.686 8.93788 11.6544 9.01476 11.5961L10.7485 10.28L12.938 8.63431L12.9441 8.62958C13.4035 8.28171 13.7379 7.79329 13.8968 7.23795C14.0557 6.68261 14.0306 6.09043 13.8251 5.55069L13.811 5.51278L12.3819 1.76911C12.353 1.6956 12.3015 1.63325 12.2349 1.59107C12.1853 1.55914 12.1289 1.53934 12.0702 1.53326C12.0115 1.52717 11.9523 1.53497 11.8972 1.55603C11.8421 1.57709 11.7926 1.61083 11.7528 1.65453C11.713 1.69823 11.684 1.75069 11.668 1.8077L10.7034 4.77353H6.79697L5.83233 1.8077C5.81624 1.75078 5.78712 1.69842 5.74731 1.6548C5.7075 1.61118 5.65809 1.5775 5.60302 1.55646C5.54795 1.53542 5.48875 1.52759 5.43013 1.5336C5.37151 1.53961 5.31511 1.55929 5.26541 1.59107C5.19885 1.63325 5.14738 1.6956 5.11845 1.76911L3.88542 5.00129C3.92351 5.00043 3.9617 5 4 5C4.38578 5 4.76136 5.04369 5.12205 5.12639L5.40695 4.37957L5.70585 5.29855C6.15979 5.46329 6.5831 5.6919 6.96492 5.97353H11.575L12.0936 4.3788L12.6883 5.93662L12.7009 5.97046Z" fill="#B2B1B2"/>
<path d="M6.22382 10.5V9.49998L5.22382 9.49998V10.5L6.22382 10.5Z" fill="#B2B1B2"/>
<path d="M4.5 10.5V9.49998L3.5 9.49998V10.5L4.5 10.5Z" fill="#B2B1B2"/>
<path d="M2.77618 10.5V9.49998L1.77618 9.49998L1.77618 10.5L2.77618 10.5Z" fill="#B2B1B2"/>
<path d="M4 12.8C5.5464 12.8 6.8 11.5464 6.8 10C6.8 8.4536 5.5464 7.2 4 7.2C2.4536 7.2 1.2 8.4536 1.2 10C1.2 11.5464 2.4536 12.8 4 12.8M4,14 C1.79086,14 0,12.2091 0,10 C0,7.79086 1.79086,6 4,6 C6.20914,6 8,7.79086 8,10 C8,12.2091 6.20914,14 4,14Z" fill="#B2B1B2"/>
</svg>
