<svg xmlns="http://www.w3.org/2000/svg" width="144" height="144" fill="none" viewBox="0 0 144 144"><rect width="132" height="132" x="6" y="6" fill="#E7E4F2" rx="66"/><path stroke="#171321" stroke-linecap="square" stroke-linejoin="round" stroke-width="2" d="M61 72h66"/><path fill="#D0C5E2" d="M10 46.08H1V107h42l9-9H10V46.08Z"/><path stroke="#171321" stroke-linecap="square" stroke-width="2" d="M10 46H1v61h39.486a6 6 0 0 0 4.277-1.793L46 103.95"/><path fill="#fff" d="M10 37h35l12 11v42a8 8 0 0 1-8 8H10V37Z"/><path fill="#fff" d="M57 48 45 37v11h12Z"/><path fill="#171321" d="M10 37v-1H9v1h1Zm35 0 .676-.737-.287-.263H45v1ZM10 98H9v1h1v-1Zm48-42.5v-1h-2v1h2ZM57 48v1l.676-1.737L57 48Zm-12 0h-1v1h1v-1ZM10 38h35v-2H10v2Zm39 59H10v2h39v-2Zm-38 1V37H9v61h2Zm45-42.5V90h2V55.5h-2ZM44.324 37.737l12 11 1.352-1.474-12-11-1.352 1.474ZM57 47H45v2h12v-2Zm-11 1V37h-2v11h2Zm3 51a9 9 0 0 0 9-9h-2a7 7 0 0 1-7 7v2Z"/><path stroke="#171321" stroke-linecap="square" stroke-width="2" d="M22 58h13"/><path stroke="#FF9D73" stroke-linecap="square" stroke-width="2" d="M39 58h6"/><path stroke="#AEA5D6" stroke-linecap="square" stroke-width="2" d="M22 66h7"/><path stroke="#171321" stroke-linecap="square" stroke-width="2" d="M33 66h12M22 74h2"/><path stroke="#FF9D73" stroke-linecap="square" stroke-width="2" d="M28 74h7"/><path stroke="#AEA5D6" stroke-linecap="square" stroke-width="2" d="M39 74h6"/><path stroke="#171321" stroke-linecap="square" stroke-width="2" d="M22 82h11M37 82h2"/><circle cx="129" cy="72" r="14" fill="#D0C5E2" stroke="#171321" stroke-linecap="square" stroke-width="2"/><path stroke="#171321" stroke-width="2" d="m123 66 12 12"/><circle cx="89" cy="72" r="14" fill="#fff" stroke="#171321" stroke-dasharray="6 6" stroke-linecap="square" stroke-width="2"/><path stroke="#171321" stroke-width="2" d="M96.5 73H89V63"/><circle cx="57" cy="72" r="6" fill="#fff" stroke="#171321" stroke-linecap="square" stroke-width="2"/></svg>