<svg xmlns="http://www.w3.org/2000/svg" width="144" height="144" fill="none" viewBox="0 0 144 144"><rect width="136" height="136" x="4" y="4" fill="#E7E4F2" rx="68"/><path fill="#D0C5E2" d="M96 46.08h-9V107h42l9-9H96V46.08Z"/><path stroke="#171321" stroke-linecap="square" stroke-width="2" d="M96 46h-9v61h39.486a5.999 5.999 0 0 0 4.277-1.793L132 103.95"/><path fill="#fff" d="M96 37h35l12 11v42a8 8 0 0 1-8 8H96V37Z"/><path fill="#fff" d="m143 48-12-11v11h12Z"/><path fill="#171321" d="M96 37v-1h-1v1h1Zm35 0 .676-.737-.287-.263H131v1ZM96 98h-1v1h1v-1Zm48-42.5v-1h-2v1h2Zm-1-7.5v1l.676-1.737L143 48Zm-12 0h-1v1h1v-1ZM96 38h35v-2H96v2Zm39 59H96v2h39v-2Zm-38 1V37h-2v61h2Zm45-42.5V90h2V55.5h-2Zm-11.676-17.763 12 11 1.352-1.474-12-11-1.352 1.474ZM143 47h-12v2h12v-2Zm-11 1V37h-2v11h2Zm3 51a9 9 0 0 0 9-9h-2a7 7 0 0 1-7 7v2Z"/><path stroke="#171321" stroke-linecap="square" stroke-width="2" d="M108 82h14M108 74h23M108 66h23M108 58h23"/><path stroke="#171321" stroke-linecap="square" stroke-linejoin="round" stroke-width="2" d="M24 72h66"/><circle cx="15" cy="72" r="14" fill="#FF9D73" stroke="#171321" stroke-linecap="square" stroke-width="2"/><path fill="#171321" fill-rule="evenodd" d="M16.482 64h-2.963l-.201 2.008a6.184 6.184 0 0 0-1.365.566l-1.562-1.278-2.095 2.095 1.278 1.562c-.24.426-.431.884-.566 1.365l-2.008.2v2.963l2.008.201c.135.481.326.939.566 1.365L8.296 76.61l2.095 2.095 1.562-1.278c.426.24.884.431 1.365.566l.2 2.008h2.963l.201-2.008a6.184 6.184 0 0 0 1.365-.566l1.562 1.278 2.095-2.095-1.278-1.562c.24-.426.431-.884.566-1.365l2.008-.2v-2.963l-2.008-.201a6.187 6.187 0 0 0-.566-1.365l1.278-1.562-2.095-2.095-1.562 1.278a6.181 6.181 0 0 0-1.365-.566l-.2-2.008ZM15 75.852a3.852 3.852 0 1 0 0-7.704 3.852 3.852 0 0 0 0 7.704Z" clip-rule="evenodd"/><circle cx="55" cy="72" r="14" fill="#fff" stroke="#171321" stroke-dasharray="6 6" stroke-linecap="square" stroke-width="2"/><path stroke="#171321" stroke-width="2" d="M62.5 73H55V63"/><circle cx="87" cy="72" r="6" fill="#fff" stroke="#171321" stroke-linecap="square" stroke-width="2"/></svg>