<svg xmlns="http://www.w3.org/2000/svg" width="144" height="144" fill="none" viewBox="0 0 144 144"><rect width="132" height="132" x="6" y="6" fill="#E7E4F2" rx="66"/><path fill="#D0C5E2" d="M143 52H97v55h29c9.389 0 17-7.611 17-17V52Z"/><path stroke="#171321" stroke-linecap="square" stroke-width="2" d="M97 98V52h46v38c0 9.389-7.611 17-17 17H97v-2"/><path fill="#fff" d="M87 37h35l12 11v42a8 8 0 0 1-8 8H87V37Z"/><path fill="#fff" d="m134 48-12-11v11h12Z"/><path fill="#171321" d="M87 98h-1v1h1v-1Zm0-61v-1h-1v1h1Zm35 0 .676-.737-.287-.263H122v1Zm12 11h1l-.324-.737L134 48Zm-12 0h-1v1h1v-1Zm-8-10h1v-2h-1v2Zm7.99-2h-1v2h1v-2ZM126 97H87v2h39v-2Zm-38 1V37h-2v61h2Zm33.324-60.263 12 11 1.352-1.474-12-11-1.352 1.474ZM134 47h-12v2h12v-2Zm-11 1V37h-2v11h2Zm10 0v42h2V48h-2ZM87 38h27v-2H87v2Zm35-2h-.01v2h.01v-2Zm4 63a9 9 0 0 0 9-9h-2a7 7 0 0 1-7 7v2Z"/><path stroke="#171321" stroke-linecap="square" stroke-width="2" d="M99 58h13"/><path stroke="#FF9D73" stroke-linecap="square" stroke-width="2" d="M116 58h6"/><path stroke="#AEA5D6" stroke-linecap="square" stroke-width="2" d="M99 66h7"/><path stroke="#171321" stroke-linecap="square" stroke-width="2" d="M110 66h12M99 74h2"/><path stroke="#FF9D73" stroke-linecap="square" stroke-width="2" d="M105 74h7"/><path stroke="#AEA5D6" stroke-linecap="square" stroke-width="2" d="M116 74h6"/><path stroke="#171321" stroke-linecap="square" stroke-width="2" d="M99 82h11M114 82h2"/><path stroke="#171321" stroke-linecap="square" stroke-linejoin="round" stroke-width="2" d="M24 72h66"/><circle cx="15" cy="72" r="14" fill="#FF9D73" stroke="#171321" stroke-linecap="square" stroke-width="2"/><path stroke="#171321" stroke-width="2" d="m12 67-1 10M18 67l-1 10"/><circle cx="55" cy="72" r="14" fill="#fff" stroke="#171321" stroke-dasharray="6 6" stroke-linecap="square" stroke-width="2"/><path stroke="#171321" stroke-width="2" d="M62.5 73H55V63"/><circle cx="87" cy="72" r="6" fill="#fff" stroke="#171321" stroke-linecap="square" stroke-width="2"/></svg>