<svg width="976" height="82" viewBox="-50 -20 1076 122" fill="none" xmlns="http://www.w3.org/2000/svg">
<rect x="-50" y="-20" width="1076" height="122" fill="#252524"/> 
<g clip-path="url(#clip0_553_31701)">
<path d="M150.519 30.524H162.822C160.769 17.4432 149.449 8.33203 134.705 8.33203C117.26 8.33203 104.18 21.1536 104.18 42.6327C104.18 64.1118 116.677 76.8037 135.061 76.8037C151.561 76.8037 163.373 66.1965 163.373 49.0111V41.007H136.331V50.4423H151.691C151.496 59.9423 145.15 65.9642 135.126 65.9642C123.963 65.9642 116.315 57.6038 116.315 42.5031C116.315 27.4023 124.092 19.1715 134.862 19.1715C142.898 19.1715 148.364 23.4651 150.513 30.5294L150.519 30.524Z" fill="white"/>
<path d="M171.506 75.8857H183.286V25.9011H171.506V75.8857ZM177.431 17.9889C181.174 17.9889 184.231 15.1264 184.231 11.6105C184.231 8.09455 181.174 5.19971 177.431 5.19971C173.688 5.19971 170.599 8.06214 170.599 11.6105C170.599 15.1588 173.656 17.9889 177.431 17.9889Z" fill="white"/>
<path d="M218.558 25.9009H208.696V13.9272H196.917V25.9009H189.82V35.0121H196.917V62.8047C196.852 72.2076 203.684 76.8307 212.536 76.5714C215.89 76.4742 218.196 75.8207 219.466 75.3995L217.483 66.191C216.83 66.3531 215.496 66.6447 214.032 66.6447C211.073 66.6447 208.696 65.6024 208.696 60.855V35.0175H218.558V25.9063V25.9009Z" fill="white"/>
<path d="M227.675 75.8859H269.099V65.7648H239.746V9.23975H227.675V75.8859Z" fill="white"/>
<path d="M291.664 76.8961C299.506 76.8961 304.194 73.2182 306.338 69.0217H306.727V75.8862H318.052V42.4334C318.052 29.223 307.283 25.2534 297.745 25.2534C287.235 25.2534 279.167 29.9413 276.558 39.0525L287.559 40.6134C288.731 37.1946 292.047 34.2674 297.81 34.2674C303.573 34.2674 306.273 37.065 306.273 41.9798V42.1742C306.273 45.5605 302.725 45.7225 293.905 46.6623C284.206 47.7047 274.932 50.5995 274.932 61.8602C274.932 71.6897 282.126 76.8961 291.659 76.8961H291.664ZM295.536 68.2386C290.622 68.2386 287.106 65.9918 287.106 61.6658C287.106 57.3397 291.043 55.255 296.314 54.5043C299.403 54.083 305.587 53.2999 307.116 52.0631V57.9554C307.116 63.5183 302.622 68.2386 295.531 68.2386H295.536Z" fill="white"/>
<path d="M326.743 75.8859H338.327V68.0115H339.013C340.871 71.6571 344.744 76.7663 353.331 76.7663C365.11 76.7663 373.93 67.4282 373.93 50.9611C373.93 34.494 364.851 25.2532 353.299 25.2532C344.479 25.2532 340.801 30.5568 339.013 34.17H338.527V9.23975H326.748V75.8859H326.743ZM338.295 50.8963C338.295 41.1964 342.459 34.9207 350.042 34.9207C357.625 34.9207 361.918 41.5907 361.918 50.8963C361.918 60.2019 357.819 67.1042 350.042 67.1042C342.265 67.1042 338.295 60.5962 338.295 50.8963Z" fill="white"/>
<path d="M82.7063 32.0688L82.5928 31.7663L71.1431 1.89975C70.9163 1.31646 70.5004 0.819585 69.9657 0.479333C69.431 0.139081 68.8045 -0.0229441 68.1726 0.00946087C67.5407 0.0418658 66.9359 0.274101 66.439 0.668362C65.9475 1.06802 65.591 1.6027 65.429 2.2076L57.7004 25.8686H26.4188L18.6903 2.2076C18.5228 1.6027 18.1664 1.06262 17.6803 0.668362C17.1834 0.274101 16.5785 0.0418658 15.9466 0.00406004C15.3094 -0.0283449 14.6883 0.13368 14.1536 0.473932C13.6189 0.814184 13.2084 1.30566 12.9762 1.89435L1.52644 31.7717L1.41302 32.0688C-1.9787 40.9207 0.91075 50.923 8.4665 56.6371C8.48271 56.6479 8.49351 56.6587 8.50971 56.6695L8.61232 56.7451L26.0516 69.7989L34.6767 76.3285L39.9263 80.2981C41.1901 81.2541 42.94 81.2541 44.2038 80.2981L49.4534 76.3285L58.0785 69.7989L75.6204 56.6641C75.6204 56.6641 75.6528 56.6425 75.669 56.6263C83.2193 50.9122 86.1088 40.9099 82.7171 32.0634L82.7063 32.0688Z" fill="#E24329"/>
<path d="M82.7058 32.0693L82.5924 31.7668C76.9107 32.9334 71.6827 35.3368 67.2 38.6907C67.1298 38.7447 53.59 48.9847 42.0592 57.7016C50.6195 64.1772 58.0726 69.7995 58.0726 69.7995L75.6145 56.6647C75.6145 56.6647 75.6469 56.643 75.6631 56.6268C83.2135 50.9128 86.1029 40.9104 82.7112 32.0639L82.7058 32.0693Z" fill="#FC6D26"/>
<path d="M26.0459 69.7993L34.671 76.3289L39.9206 80.2985C41.1844 81.2544 42.9343 81.2544 44.1981 80.2985L49.4477 76.3289L58.0728 69.7993C58.0728 69.7993 50.6197 64.1716 42.0594 57.7014C33.499 64.177 26.0459 69.7993 26.0459 69.7993Z" fill="#FCA121"/>
<path d="M16.9129 38.6909C12.4357 35.3424 7.20765 32.9336 1.52058 31.7725L1.40716 32.0695C-1.98456 40.9215 0.904883 50.9238 8.46064 56.6379C8.47685 56.6487 8.48765 56.6595 8.50385 56.6703L8.60647 56.7459L26.0457 69.7997C26.0457 69.7997 33.4989 64.172 42.0592 57.7018C30.5284 48.9849 16.9885 38.7449 16.9183 38.6909H16.9129Z" fill="#FC6D26"/>
<path d="M817.553 66.9451V37.0879H822.327V66.9451H817.553ZM805.012 54.4035V49.6295H834.869V54.4035H805.012Z" fill="white"/>
<path d="M735.103 76.0001L721.233 26.9092H733.026L741.655 61.4262H742.103L750.924 26.9092H762.589L771.41 61.2345H771.889L780.391 26.9092H792.216L778.314 76.0001H766.264L757.06 42.8254H756.389L747.184 76.0001H735.103Z" fill="white"/>
<path d="M696.036 76.9589C691.242 76.9589 687.087 75.9043 683.571 73.7949C680.056 71.6855 677.328 68.7345 675.389 64.9419C673.472 61.1493 672.513 56.7175 672.513 51.6464C672.513 46.5754 673.472 42.1329 675.389 38.319C677.328 34.5051 680.056 31.5435 683.571 29.4341C687.087 27.3247 691.242 26.27 696.036 26.27C700.83 26.27 704.985 27.3247 708.5 29.4341C712.016 31.5435 714.732 34.5051 716.65 38.319C718.589 42.1329 719.558 46.5754 719.558 51.6464C719.558 56.7175 718.589 61.1493 716.65 64.9419C714.732 68.7345 712.016 71.6855 708.5 73.7949C704.985 75.9043 700.83 76.9589 696.036 76.9589ZM696.1 67.6905C698.699 67.6905 700.872 66.9767 702.619 65.5491C704.367 64.1003 705.666 62.1614 706.519 59.7324C707.392 57.3034 707.829 54.5974 707.829 51.6145C707.829 48.6102 707.392 45.8936 706.519 43.4646C705.666 41.0143 704.367 39.0648 702.619 37.6159C700.872 36.167 698.699 35.4426 696.1 35.4426C693.436 35.4426 691.22 36.167 689.452 37.6159C687.705 39.0648 686.394 41.0143 685.521 43.4646C684.668 45.8936 684.242 48.6102 684.242 51.6145C684.242 54.5974 684.668 57.3034 685.521 59.7324C686.394 62.1614 687.705 64.1003 689.452 65.5491C691.22 66.9767 693.436 67.6905 696.1 67.6905Z" fill="white"/>
<path d="M665.725 10.5454V76H654.156V10.5454H665.725Z" fill="white"/>
<path d="M646.095 26.9094V35.8582H617.075V26.9094H646.095ZM624.33 76.0003V22.2751C624.33 18.9726 625.012 16.224 626.375 14.0294C627.76 11.8348 629.614 10.1942 631.936 9.10751C634.259 8.02086 636.837 7.47754 639.671 7.47754C641.674 7.47754 643.453 7.63734 645.008 7.95695C646.564 8.27655 647.714 8.56419 648.46 8.81987L646.159 17.7687C645.669 17.6196 645.051 17.4704 644.305 17.3213C643.559 17.1508 642.728 17.0656 641.812 17.0656C639.66 17.0656 638.137 17.5876 637.242 18.6317C636.368 19.6544 635.931 21.1246 635.931 23.0422V76.0003H624.33Z" fill="white"/>
<path d="M578.536 60.5951L578.504 46.6285H580.358L598 26.909H611.519L589.818 51.071H587.421L578.536 60.5951ZM567.99 76V10.5454H579.559V76H567.99ZM598.799 76L582.819 53.6598L590.617 45.5099L612.638 76H598.799Z" fill="white"/>
<path d="M533.306 76.0001V26.9092H544.524V35.091H545.035C545.93 32.2572 547.464 30.0732 549.638 28.5392C551.832 26.9838 554.336 26.2061 557.148 26.2061C557.787 26.2061 558.501 26.238 559.29 26.3019C560.099 26.3445 560.77 26.4191 561.303 26.5257V37.1684C560.813 36.998 560.035 36.8488 558.97 36.721C557.926 36.5718 556.914 36.4972 555.934 36.4972C553.824 36.4972 551.928 36.9553 550.245 37.8715C548.583 38.7664 547.273 40.0129 546.314 41.6109C545.355 43.2089 544.876 45.0519 544.876 47.14V76.0001H533.306Z" fill="white"/>
<path d="M501.963 76.9589C497.169 76.9589 493.015 75.9043 489.499 73.7949C485.983 71.6855 483.256 68.7345 481.317 64.9419C479.399 61.1493 478.441 56.7175 478.441 51.6464C478.441 46.5754 479.399 42.1329 481.317 38.319C483.256 34.5051 485.983 31.5435 489.499 29.4341C493.015 27.3247 497.169 26.27 501.963 26.27C506.757 26.27 510.912 27.3247 514.428 29.4341C517.944 31.5435 520.66 34.5051 522.578 38.319C524.517 42.1329 525.486 46.5754 525.486 51.6464C525.486 56.7175 524.517 61.1493 522.578 64.9419C520.66 68.7345 517.944 71.6855 514.428 73.7949C510.912 75.9043 506.757 76.9589 501.963 76.9589ZM502.027 67.6905C504.627 67.6905 506.8 66.9767 508.547 65.5491C510.294 64.1003 511.594 62.1614 512.446 59.7324C513.32 57.3034 513.757 54.5974 513.757 51.6145C513.757 48.6102 513.32 45.8936 512.446 43.4646C511.594 41.0143 510.294 39.0648 508.547 37.6159C506.8 36.167 504.627 35.4426 502.027 35.4426C499.364 35.4426 497.148 36.167 495.38 37.6159C493.632 39.0648 492.322 41.0143 491.448 43.4646C490.596 45.8936 490.17 48.6102 490.17 51.6145C490.17 54.5974 490.596 57.3034 491.448 59.7324C492.322 62.1614 493.632 64.1003 495.38 65.5491C497.148 66.9767 499.364 67.6905 502.027 67.6905Z" fill="white"/>
<path d="M412.231 76L393.758 10.5454H406.51L418.303 58.6456H418.911L431.503 10.5454H443.104L455.729 58.6775H456.304L468.097 10.5454H480.849L462.376 76H450.679L437.575 30.0731H437.064L423.928 76H412.231Z" fill="white"/>
<path d="M957.585 27H858.426C855.981 27 854 28.9815 854 31.4257V71.5743C854 74.0185 855.981 76 858.426 76H957.585C960.029 76 962.011 74.0185 962.011 71.5743V31.4257C962.011 28.9815 960.029 27 957.585 27Z" fill="white"/>
<path d="M948.247 33.3062L947.563 37.1758C947.339 38.4357 946.381 39.4127 945.174 39.6441L941.43 40.3512C940.77 40.4798 940.77 41.4568 941.43 41.5725L945.174 42.2795C946.393 42.511 947.339 43.5009 947.563 44.7478L948.247 48.6174C948.371 49.2989 949.317 49.2989 949.429 48.6174L950.113 44.7478C950.338 43.488 951.296 42.511 952.502 42.2795L956.247 41.5725C956.906 41.4439 956.906 40.4668 956.247 40.3512L952.502 39.6441C951.282 39.4127 950.338 38.4228 950.113 37.1758L949.429 33.3062C949.304 32.6248 948.359 32.6248 948.247 33.3062Z" fill="#171321"/>
<path d="M933.625 69.5832C931.068 69.5832 928.853 69.0127 926.979 67.8718C925.104 66.7309 923.651 65.1348 922.616 63.0833C921.594 61.032 921.083 58.635 921.083 55.8921C921.083 53.1493 921.594 50.7465 922.616 48.6836C923.651 46.6207 925.104 45.0189 926.979 43.8779C928.853 42.737 931.068 42.1665 933.625 42.1665C936.181 42.1665 938.396 42.737 940.27 43.8779C942.144 45.0189 943.593 46.6207 944.615 48.6836C945.65 50.7465 946.166 53.1493 946.166 55.8921C946.166 58.635 945.65 61.032 944.615 63.0833C943.593 65.1348 942.144 66.7309 940.27 67.8718C938.396 69.0127 936.181 69.5832 933.625 69.5832ZM933.658 64.5701C935.044 64.5701 936.203 64.184 937.135 63.4118C938.066 62.6282 938.759 61.5795 939.213 60.2656C939.679 58.9518 939.913 57.4883 939.913 55.8749C939.913 54.2499 939.679 52.7805 939.213 51.4668C938.759 50.1414 938.066 49.087 937.135 48.3033C936.203 47.5196 935.044 47.1278 933.658 47.1278C932.239 47.1278 931.057 47.5196 930.114 48.3033C929.183 49.087 928.485 50.1414 928.019 51.4668C927.564 52.7805 927.337 54.2499 927.337 55.8749C927.337 57.4883 927.564 58.9518 928.019 60.2656C928.485 61.5795 929.183 62.6282 930.114 63.4118C931.057 64.184 932.239 64.5701 933.658 64.5701Z" fill="#171321"/>
<path d="M911.284 58.0979V42.7498H917.583V69.2382H911.475V64.5303H911.197C910.594 66.0133 909.602 67.2263 908.221 68.169C906.853 69.1118 905.165 69.5831 903.158 69.5831C901.407 69.5831 899.858 69.198 898.513 68.4277C897.178 67.6459 896.135 66.5134 895.38 65.0304C894.627 63.5358 894.25 61.7308 894.25 59.6154V42.7498H900.548V58.6497C900.548 60.3282 901.012 61.6619 901.94 62.6506C902.869 63.6393 904.087 64.1336 905.594 64.1336C906.522 64.1336 907.422 63.9095 908.291 63.4611C909.161 63.0127 909.874 62.3459 910.431 61.4606C911 60.564 911.284 59.443 911.284 58.0979Z" fill="#171321"/>
<path d="M873.575 69.0005H861.583V34.0005H873.816C877.33 34.0005 880.348 34.7012 882.871 36.1026C885.405 37.4925 887.352 39.492 888.711 42.1011C890.071 44.7101 890.75 47.8319 890.75 51.4663C890.75 55.1122 890.064 58.2452 888.693 60.8657C887.334 63.4861 885.37 65.4971 882.801 66.8985C880.244 68.2998 877.169 69.0005 873.575 69.0005ZM867.994 63.5146H873.264C875.729 63.5146 877.785 63.0704 879.432 62.1817C881.08 61.2816 882.318 59.9428 883.147 58.1655C883.976 56.3768 884.391 54.1437 884.391 51.4663C884.391 48.7888 883.976 46.5673 883.147 44.8013C882.318 43.0239 881.091 41.6967 879.467 40.8194C877.855 39.9307 875.85 39.4864 873.453 39.4864H867.994V63.5146Z" fill="#171321"/>
</g>
<defs>
<clipPath id="clip0_553_31701">
<rect width="976" height="82" fill="white"/>
</clipPath>
</defs>
</svg>
